<mxfile host="Electron" modified="2024-05-20T00:28:28.055Z" agent="Mozilla/5.0 (Windows NT 10.0; Win64; x64) AppleWebKit/537.36 (KHTML, like Gecko) draw.io/23.0.2 Chrome/120.0.6099.109 Electron/28.1.0 Safari/537.36" etag="lR2Bp_ah-EgjIx6bZs47" version="23.0.2" type="device">
  <diagram id="R2lEEEUBdFMjLlhIrx00" name="Page-1">
    <mxGraphModel dx="3183" dy="2498" grid="1" gridSize="10" guides="1" tooltips="1" connect="1" arrows="1" fold="1" page="1" pageScale="1" pageWidth="850" pageHeight="1100" math="0" shadow="0" extFonts="Permanent Marker^https://fonts.googleapis.com/css?family=Permanent+Marker">
      <root>
        <mxCell id="0" />
        <mxCell id="1" parent="0" />
        <mxCell id="WplWKPnF_K1dkWPsmOND-42" style="edgeStyle=orthogonalEdgeStyle;rounded=0;orthogonalLoop=1;jettySize=auto;html=1;exitX=0.5;exitY=1;exitDx=0;exitDy=0;entryX=1;entryY=0.5;entryDx=0;entryDy=0;endArrow=none;endFill=0;" parent="1" source="mcFb8cgrytJxFzLp9jf6-1" target="WplWKPnF_K1dkWPsmOND-38" edge="1">
          <mxGeometry relative="1" as="geometry">
            <Array as="points">
              <mxPoint x="170" y="80" />
            </Array>
          </mxGeometry>
        </mxCell>
        <mxCell id="WplWKPnF_K1dkWPsmOND-43" style="edgeStyle=orthogonalEdgeStyle;rounded=0;orthogonalLoop=1;jettySize=auto;html=1;exitX=0.5;exitY=1;exitDx=0;exitDy=0;entryX=1;entryY=0.5;entryDx=0;entryDy=0;endArrow=none;endFill=0;" parent="1" source="mcFb8cgrytJxFzLp9jf6-1" target="WplWKPnF_K1dkWPsmOND-39" edge="1">
          <mxGeometry relative="1" as="geometry">
            <Array as="points">
              <mxPoint x="170" y="140" />
            </Array>
          </mxGeometry>
        </mxCell>
        <mxCell id="WplWKPnF_K1dkWPsmOND-44" style="edgeStyle=orthogonalEdgeStyle;rounded=0;orthogonalLoop=1;jettySize=auto;html=1;exitX=0.5;exitY=1;exitDx=0;exitDy=0;entryX=1;entryY=0.5;entryDx=0;entryDy=0;endArrow=none;endFill=0;" parent="1" source="mcFb8cgrytJxFzLp9jf6-1" target="WplWKPnF_K1dkWPsmOND-40" edge="1">
          <mxGeometry relative="1" as="geometry">
            <Array as="points">
              <mxPoint x="170" y="200" />
            </Array>
          </mxGeometry>
        </mxCell>
        <mxCell id="WplWKPnF_K1dkWPsmOND-45" style="edgeStyle=orthogonalEdgeStyle;rounded=0;orthogonalLoop=1;jettySize=auto;html=1;exitX=0.5;exitY=1;exitDx=0;exitDy=0;entryX=1;entryY=0.5;entryDx=0;entryDy=0;endArrow=none;endFill=0;" parent="1" source="mcFb8cgrytJxFzLp9jf6-1" target="WplWKPnF_K1dkWPsmOND-41" edge="1">
          <mxGeometry relative="1" as="geometry">
            <Array as="points">
              <mxPoint x="170" y="260" />
            </Array>
          </mxGeometry>
        </mxCell>
        <mxCell id="WplWKPnF_K1dkWPsmOND-105" style="edgeStyle=orthogonalEdgeStyle;rounded=0;orthogonalLoop=1;jettySize=auto;html=1;exitX=0.5;exitY=1;exitDx=0;exitDy=0;entryX=1;entryY=0.5;entryDx=0;entryDy=0;endArrow=none;endFill=0;" parent="1" source="mcFb8cgrytJxFzLp9jf6-1" target="WplWKPnF_K1dkWPsmOND-104" edge="1">
          <mxGeometry relative="1" as="geometry">
            <Array as="points">
              <mxPoint x="170" y="320" />
            </Array>
          </mxGeometry>
        </mxCell>
        <mxCell id="CRqIWNUID3f5_L4n8UA--2" style="edgeStyle=orthogonalEdgeStyle;rounded=0;orthogonalLoop=1;jettySize=auto;html=1;exitX=0.5;exitY=1;exitDx=0;exitDy=0;entryX=1;entryY=0.5;entryDx=0;entryDy=0;endArrow=none;endFill=0;" parent="1" source="mcFb8cgrytJxFzLp9jf6-1" target="CRqIWNUID3f5_L4n8UA--1" edge="1">
          <mxGeometry relative="1" as="geometry">
            <Array as="points">
              <mxPoint x="170" y="380" />
            </Array>
          </mxGeometry>
        </mxCell>
        <mxCell id="mcFb8cgrytJxFzLp9jf6-1" value="Товар" style="rounded=0;whiteSpace=wrap;html=1;" parent="1" vertex="1">
          <mxGeometry x="120" y="-120" width="100" height="40" as="geometry" />
        </mxCell>
        <mxCell id="WplWKPnF_K1dkWPsmOND-48" style="edgeStyle=orthogonalEdgeStyle;rounded=0;orthogonalLoop=1;jettySize=auto;html=1;exitX=0.75;exitY=1;exitDx=0;exitDy=0;entryX=0;entryY=0.5;entryDx=0;entryDy=0;endArrow=none;endFill=0;" parent="1" source="mcFb8cgrytJxFzLp9jf6-3" target="WplWKPnF_K1dkWPsmOND-46" edge="1">
          <mxGeometry relative="1" as="geometry" />
        </mxCell>
        <mxCell id="WplWKPnF_K1dkWPsmOND-49" style="edgeStyle=orthogonalEdgeStyle;rounded=0;orthogonalLoop=1;jettySize=auto;html=1;exitX=0.75;exitY=1;exitDx=0;exitDy=0;entryX=0;entryY=0.5;entryDx=0;entryDy=0;endArrow=none;endFill=0;" parent="1" source="mcFb8cgrytJxFzLp9jf6-3" target="WplWKPnF_K1dkWPsmOND-47" edge="1">
          <mxGeometry relative="1" as="geometry" />
        </mxCell>
        <mxCell id="mcFb8cgrytJxFzLp9jf6-3" value="Склад" style="rounded=0;whiteSpace=wrap;html=1;" parent="1" vertex="1">
          <mxGeometry x="580" y="-340" width="100" height="40" as="geometry" />
        </mxCell>
        <mxCell id="mcFb8cgrytJxFzLp9jf6-11" value="Заключает" style="rhombus;whiteSpace=wrap;html=1;" parent="1" vertex="1">
          <mxGeometry x="260" y="-340" width="100" height="40" as="geometry" />
        </mxCell>
        <mxCell id="mcFb8cgrytJxFzLp9jf6-15" value="Поставляет" style="rhombus;whiteSpace=wrap;html=1;" parent="1" vertex="1">
          <mxGeometry x="120" y="-200" width="100" height="40" as="geometry" />
        </mxCell>
        <mxCell id="mcFb8cgrytJxFzLp9jf6-18" value="" style="edgeStyle=orthogonalEdgeStyle;fontSize=12;html=1;endArrow=ERoneToMany;rounded=0;exitX=0.5;exitY=1;exitDx=0;exitDy=0;entryX=0.5;entryY=0;entryDx=0;entryDy=0;jumpStyle=arc;" parent="1" source="mcFb8cgrytJxFzLp9jf6-15" target="mcFb8cgrytJxFzLp9jf6-1" edge="1">
          <mxGeometry width="100" height="100" relative="1" as="geometry">
            <mxPoint x="-20" y="-110" as="sourcePoint" />
            <mxPoint x="80" y="-210" as="targetPoint" />
            <Array as="points">
              <mxPoint x="170" y="-130" />
              <mxPoint x="170" y="-130" />
            </Array>
          </mxGeometry>
        </mxCell>
        <mxCell id="mcFb8cgrytJxFzLp9jf6-19" value="" style="edgeStyle=orthogonalEdgeStyle;fontSize=12;html=1;endArrow=none;rounded=0;exitX=1;exitY=0.5;exitDx=0;exitDy=0;entryX=0.25;entryY=0;entryDx=0;entryDy=0;endFill=0;" parent="1" source="mcFb8cgrytJxFzLp9jf6-11" target="WplWKPnF_K1dkWPsmOND-78" edge="1">
          <mxGeometry width="100" height="100" relative="1" as="geometry">
            <mxPoint x="50" y="-230" as="sourcePoint" />
            <mxPoint x="410" y="-160" as="targetPoint" />
          </mxGeometry>
        </mxCell>
        <mxCell id="mcFb8cgrytJxFzLp9jf6-24" value="" style="endArrow=none;html=1;rounded=0;exitX=1;exitY=0.5;exitDx=0;exitDy=0;entryX=0;entryY=0.5;entryDx=0;entryDy=0;startArrow=ERoneToMany;startFill=0;" parent="1" source="mcFb8cgrytJxFzLp9jf6-59" target="mcFb8cgrytJxFzLp9jf6-11" edge="1">
          <mxGeometry relative="1" as="geometry">
            <mxPoint x="220" y="-379.9999999999998" as="sourcePoint" />
            <mxPoint x="440" y="-310" as="targetPoint" />
          </mxGeometry>
        </mxCell>
        <mxCell id="mcFb8cgrytJxFzLp9jf6-30" value="Хранится как" style="rhombus;whiteSpace=wrap;html=1;" parent="1" vertex="1">
          <mxGeometry x="240" y="100" width="100" height="40" as="geometry" />
        </mxCell>
        <mxCell id="WplWKPnF_K1dkWPsmOND-36" style="edgeStyle=orthogonalEdgeStyle;rounded=0;orthogonalLoop=1;jettySize=auto;html=1;exitX=0.5;exitY=1;exitDx=0;exitDy=0;entryX=1;entryY=0.5;entryDx=0;entryDy=0;endArrow=none;endFill=0;" parent="1" source="mcFb8cgrytJxFzLp9jf6-42" target="WplWKPnF_K1dkWPsmOND-34" edge="1">
          <mxGeometry relative="1" as="geometry" />
        </mxCell>
        <mxCell id="WplWKPnF_K1dkWPsmOND-37" style="edgeStyle=orthogonalEdgeStyle;rounded=0;orthogonalLoop=1;jettySize=auto;html=1;exitX=0.5;exitY=1;exitDx=0;exitDy=0;entryX=1;entryY=0.5;entryDx=0;entryDy=0;endArrow=none;endFill=0;" parent="1" source="mcFb8cgrytJxFzLp9jf6-42" target="WplWKPnF_K1dkWPsmOND-35" edge="1">
          <mxGeometry relative="1" as="geometry" />
        </mxCell>
        <mxCell id="mcFb8cgrytJxFzLp9jf6-42" value="Категория&lt;br&gt;товара" style="rounded=0;whiteSpace=wrap;html=1;" parent="1" vertex="1">
          <mxGeometry width="100" height="40" as="geometry" />
        </mxCell>
        <mxCell id="mcFb8cgrytJxFzLp9jf6-45" value="Относится к" style="rhombus;whiteSpace=wrap;html=1;" parent="1" vertex="1">
          <mxGeometry y="-70" width="100" height="40" as="geometry" />
        </mxCell>
        <mxCell id="mcFb8cgrytJxFzLp9jf6-47" value="" style="edgeStyle=orthogonalEdgeStyle;fontSize=12;html=1;endArrow=ERoneToMany;rounded=0;exitX=0;exitY=0.5;exitDx=0;exitDy=0;entryX=0.75;entryY=1;entryDx=0;entryDy=0;" parent="1" source="mcFb8cgrytJxFzLp9jf6-30" target="mcFb8cgrytJxFzLp9jf6-1" edge="1">
          <mxGeometry width="100" height="100" relative="1" as="geometry">
            <mxPoint x="50" y="-230" as="sourcePoint" />
            <mxPoint x="160" y="-10" as="targetPoint" />
          </mxGeometry>
        </mxCell>
        <mxCell id="mcFb8cgrytJxFzLp9jf6-48" value="Хранит" style="rhombus;whiteSpace=wrap;html=1;" parent="1" vertex="1">
          <mxGeometry x="580" y="-160" width="100" height="40" as="geometry" />
        </mxCell>
        <mxCell id="mcFb8cgrytJxFzLp9jf6-49" value="" style="edgeStyle=orthogonalEdgeStyle;fontSize=12;html=1;endArrow=ERoneToMany;rounded=0;exitX=0.5;exitY=0;exitDx=0;exitDy=0;entryX=0.5;entryY=1;entryDx=0;entryDy=0;" parent="1" source="mcFb8cgrytJxFzLp9jf6-48" target="mcFb8cgrytJxFzLp9jf6-3" edge="1">
          <mxGeometry width="100" height="100" relative="1" as="geometry">
            <mxPoint x="310" y="-40" as="sourcePoint" />
            <mxPoint x="240" y="-110" as="targetPoint" />
          </mxGeometry>
        </mxCell>
        <mxCell id="mcFb8cgrytJxFzLp9jf6-51" value="" style="endArrow=none;html=1;rounded=0;exitX=0.5;exitY=1;exitDx=0;exitDy=0;entryX=0.5;entryY=0;entryDx=0;entryDy=0;" parent="1" source="mcFb8cgrytJxFzLp9jf6-48" target="mcFb8cgrytJxFzLp9jf6-57" edge="1">
          <mxGeometry relative="1" as="geometry">
            <mxPoint x="590" y="-140" as="sourcePoint" />
            <mxPoint x="630" y="-70" as="targetPoint" />
          </mxGeometry>
        </mxCell>
        <mxCell id="mcFb8cgrytJxFzLp9jf6-52" value="" style="endArrow=none;html=1;rounded=0;exitX=1;exitY=0.5;exitDx=0;exitDy=0;entryX=0;entryY=0.5;entryDx=0;entryDy=0;" parent="1" source="mcFb8cgrytJxFzLp9jf6-30" target="mcFb8cgrytJxFzLp9jf6-57" edge="1">
          <mxGeometry relative="1" as="geometry">
            <mxPoint x="500" y="-140" as="sourcePoint" />
            <mxPoint x="520" y="-50" as="targetPoint" />
          </mxGeometry>
        </mxCell>
        <mxCell id="mcFb8cgrytJxFzLp9jf6-53" value="" style="edgeStyle=orthogonalEdgeStyle;fontSize=12;html=1;endArrow=ERoneToMany;rounded=0;exitX=1;exitY=0.5;exitDx=0;exitDy=0;entryX=0.25;entryY=1;entryDx=0;entryDy=0;" parent="1" source="mcFb8cgrytJxFzLp9jf6-45" target="mcFb8cgrytJxFzLp9jf6-1" edge="1">
          <mxGeometry width="100" height="100" relative="1" as="geometry">
            <mxPoint x="250" y="-40" as="sourcePoint" />
            <mxPoint x="180" y="-110" as="targetPoint" />
          </mxGeometry>
        </mxCell>
        <mxCell id="mcFb8cgrytJxFzLp9jf6-54" value="" style="endArrow=none;html=1;rounded=0;exitX=0.5;exitY=1;exitDx=0;exitDy=0;entryX=0.5;entryY=0;entryDx=0;entryDy=0;" parent="1" source="mcFb8cgrytJxFzLp9jf6-45" target="mcFb8cgrytJxFzLp9jf6-42" edge="1">
          <mxGeometry relative="1" as="geometry">
            <mxPoint x="230" y="-100" as="sourcePoint" />
            <mxPoint x="390" y="-100" as="targetPoint" />
          </mxGeometry>
        </mxCell>
        <mxCell id="WplWKPnF_K1dkWPsmOND-72" style="edgeStyle=orthogonalEdgeStyle;rounded=0;orthogonalLoop=1;jettySize=auto;html=1;exitX=0.5;exitY=1;exitDx=0;exitDy=0;entryX=0;entryY=0.5;entryDx=0;entryDy=0;endArrow=none;endFill=0;" parent="1" source="mcFb8cgrytJxFzLp9jf6-57" target="WplWKPnF_K1dkWPsmOND-68" edge="1">
          <mxGeometry relative="1" as="geometry" />
        </mxCell>
        <mxCell id="WplWKPnF_K1dkWPsmOND-73" style="edgeStyle=orthogonalEdgeStyle;rounded=0;orthogonalLoop=1;jettySize=auto;html=1;exitX=0.5;exitY=1;exitDx=0;exitDy=0;entryX=0;entryY=0.5;entryDx=0;entryDy=0;endArrow=none;endFill=0;" parent="1" source="mcFb8cgrytJxFzLp9jf6-57" target="WplWKPnF_K1dkWPsmOND-69" edge="1">
          <mxGeometry relative="1" as="geometry" />
        </mxCell>
        <mxCell id="WplWKPnF_K1dkWPsmOND-74" style="edgeStyle=orthogonalEdgeStyle;rounded=0;orthogonalLoop=1;jettySize=auto;html=1;exitX=0.5;exitY=1;exitDx=0;exitDy=0;entryX=0;entryY=0.5;entryDx=0;entryDy=0;endArrow=none;endFill=0;" parent="1" source="mcFb8cgrytJxFzLp9jf6-57" target="WplWKPnF_K1dkWPsmOND-70" edge="1">
          <mxGeometry relative="1" as="geometry" />
        </mxCell>
        <mxCell id="mcFb8cgrytJxFzLp9jf6-57" value="Товар на складе" style="shape=ext;margin=3;double=1;whiteSpace=wrap;html=1;align=center;rounded=0;strokeColor=default;verticalAlign=middle;fontFamily=Helvetica;fontSize=12;fontColor=default;fillColor=default;" parent="1" vertex="1">
          <mxGeometry x="580" y="100" width="100" height="40" as="geometry" />
        </mxCell>
        <mxCell id="WplWKPnF_K1dkWPsmOND-61" style="edgeStyle=orthogonalEdgeStyle;rounded=0;orthogonalLoop=1;jettySize=auto;html=1;exitX=0;exitY=0.5;exitDx=0;exitDy=0;entryX=1;entryY=0.5;entryDx=0;entryDy=0;endArrow=none;endFill=0;" parent="1" source="mcFb8cgrytJxFzLp9jf6-59" target="WplWKPnF_K1dkWPsmOND-59" edge="1">
          <mxGeometry relative="1" as="geometry">
            <Array as="points">
              <mxPoint x="-140" y="-320" />
              <mxPoint x="-140" y="-170" />
            </Array>
          </mxGeometry>
        </mxCell>
        <mxCell id="WplWKPnF_K1dkWPsmOND-62" style="edgeStyle=orthogonalEdgeStyle;rounded=0;orthogonalLoop=1;jettySize=auto;html=1;exitX=0;exitY=0.5;exitDx=0;exitDy=0;entryX=1;entryY=0.5;entryDx=0;entryDy=0;endArrow=none;endFill=0;" parent="1" source="mcFb8cgrytJxFzLp9jf6-59" target="WplWKPnF_K1dkWPsmOND-60" edge="1">
          <mxGeometry relative="1" as="geometry">
            <Array as="points">
              <mxPoint x="-140" y="-320" />
              <mxPoint x="-140" y="-230" />
            </Array>
          </mxGeometry>
        </mxCell>
        <mxCell id="WplWKPnF_K1dkWPsmOND-63" style="edgeStyle=orthogonalEdgeStyle;rounded=0;orthogonalLoop=1;jettySize=auto;html=1;exitX=0;exitY=0.5;exitDx=0;exitDy=0;entryX=1;entryY=0.5;entryDx=0;entryDy=0;endArrow=none;endFill=0;" parent="1" source="mcFb8cgrytJxFzLp9jf6-59" target="WplWKPnF_K1dkWPsmOND-58" edge="1">
          <mxGeometry relative="1" as="geometry">
            <Array as="points">
              <mxPoint x="-140" y="-320" />
              <mxPoint x="-140" y="-290" />
            </Array>
          </mxGeometry>
        </mxCell>
        <mxCell id="WplWKPnF_K1dkWPsmOND-64" style="edgeStyle=orthogonalEdgeStyle;rounded=0;orthogonalLoop=1;jettySize=auto;html=1;exitX=0;exitY=0.5;exitDx=0;exitDy=0;entryX=1;entryY=0.5;entryDx=0;entryDy=0;endArrow=none;endFill=0;" parent="1" source="mcFb8cgrytJxFzLp9jf6-59" target="WplWKPnF_K1dkWPsmOND-57" edge="1">
          <mxGeometry relative="1" as="geometry">
            <Array as="points">
              <mxPoint x="-140" y="-320" />
              <mxPoint x="-140" y="-350" />
            </Array>
          </mxGeometry>
        </mxCell>
        <mxCell id="v9epDAscQyj7H1c9NfW2-3" style="edgeStyle=orthogonalEdgeStyle;rounded=0;orthogonalLoop=1;jettySize=auto;html=1;exitX=0;exitY=0.5;exitDx=0;exitDy=0;entryX=1;entryY=0.5;entryDx=0;entryDy=0;endArrow=none;endFill=0;" parent="1" source="mcFb8cgrytJxFzLp9jf6-59" target="v9epDAscQyj7H1c9NfW2-1" edge="1">
          <mxGeometry relative="1" as="geometry">
            <Array as="points">
              <mxPoint x="-140" y="-320" />
              <mxPoint x="-140" y="-110" />
            </Array>
          </mxGeometry>
        </mxCell>
        <mxCell id="v9epDAscQyj7H1c9NfW2-4" style="edgeStyle=orthogonalEdgeStyle;rounded=0;orthogonalLoop=1;jettySize=auto;html=1;exitX=0;exitY=0.5;exitDx=0;exitDy=0;entryX=1;entryY=0.5;entryDx=0;entryDy=0;endArrow=none;endFill=0;" parent="1" source="mcFb8cgrytJxFzLp9jf6-59" target="v9epDAscQyj7H1c9NfW2-2" edge="1">
          <mxGeometry relative="1" as="geometry">
            <Array as="points">
              <mxPoint x="-140" y="-320" />
              <mxPoint x="-140" y="-50" />
            </Array>
          </mxGeometry>
        </mxCell>
        <mxCell id="1koM7frPWDngh7DI1A6u-3" style="edgeStyle=orthogonalEdgeStyle;rounded=0;orthogonalLoop=1;jettySize=auto;html=1;exitX=0.5;exitY=0;exitDx=0;exitDy=0;entryX=0.5;entryY=1;entryDx=0;entryDy=0;endArrow=none;endFill=0;" edge="1" parent="1" source="mcFb8cgrytJxFzLp9jf6-59" target="1koM7frPWDngh7DI1A6u-1">
          <mxGeometry relative="1" as="geometry" />
        </mxCell>
        <mxCell id="mcFb8cgrytJxFzLp9jf6-59" value="Фирма" style="rounded=0;whiteSpace=wrap;html=1;" parent="1" vertex="1">
          <mxGeometry x="-50" y="-340" width="100" height="40" as="geometry" />
        </mxCell>
        <mxCell id="WplWKPnF_K1dkWPsmOND-34" value="ID" style="ellipse;whiteSpace=wrap;html=1;align=center;" parent="1" vertex="1">
          <mxGeometry x="-60" y="80" width="80" height="40" as="geometry" />
        </mxCell>
        <mxCell id="WplWKPnF_K1dkWPsmOND-35" value="Название категории" style="ellipse;whiteSpace=wrap;html=1;align=center;" parent="1" vertex="1">
          <mxGeometry x="-60" y="140" width="80" height="40" as="geometry" />
        </mxCell>
        <mxCell id="WplWKPnF_K1dkWPsmOND-38" value="ID" style="ellipse;whiteSpace=wrap;html=1;align=center;" parent="1" vertex="1">
          <mxGeometry x="80" y="60" width="80" height="40" as="geometry" />
        </mxCell>
        <mxCell id="WplWKPnF_K1dkWPsmOND-39" value="Название товара" style="ellipse;whiteSpace=wrap;html=1;align=center;" parent="1" vertex="1">
          <mxGeometry x="80" y="120" width="80" height="40" as="geometry" />
        </mxCell>
        <mxCell id="WplWKPnF_K1dkWPsmOND-40" value="Категория" style="ellipse;whiteSpace=wrap;html=1;align=center;" parent="1" vertex="1">
          <mxGeometry x="80" y="180" width="80" height="40" as="geometry" />
        </mxCell>
        <mxCell id="WplWKPnF_K1dkWPsmOND-41" value="Поставщик" style="ellipse;whiteSpace=wrap;html=1;align=center;" parent="1" vertex="1">
          <mxGeometry x="80" y="240" width="80" height="40" as="geometry" />
        </mxCell>
        <mxCell id="WplWKPnF_K1dkWPsmOND-46" value="ID" style="ellipse;whiteSpace=wrap;html=1;align=center;" parent="1" vertex="1">
          <mxGeometry x="700" y="-280" width="80" height="40" as="geometry" />
        </mxCell>
        <mxCell id="WplWKPnF_K1dkWPsmOND-47" value="Адрес" style="ellipse;whiteSpace=wrap;html=1;align=center;" parent="1" vertex="1">
          <mxGeometry x="700" y="-220" width="80" height="40" as="geometry" />
        </mxCell>
        <mxCell id="WplWKPnF_K1dkWPsmOND-57" value="ID" style="ellipse;whiteSpace=wrap;html=1;align=center;" parent="1" vertex="1">
          <mxGeometry x="-240" y="-370" width="80" height="40" as="geometry" />
        </mxCell>
        <mxCell id="WplWKPnF_K1dkWPsmOND-58" value="Название&lt;br&gt;фирмы" style="ellipse;whiteSpace=wrap;html=1;align=center;" parent="1" vertex="1">
          <mxGeometry x="-240" y="-310" width="80" height="40" as="geometry" />
        </mxCell>
        <mxCell id="WplWKPnF_K1dkWPsmOND-59" value="Email" style="ellipse;whiteSpace=wrap;html=1;align=center;" parent="1" vertex="1">
          <mxGeometry x="-240" y="-190" width="80" height="40" as="geometry" />
        </mxCell>
        <mxCell id="WplWKPnF_K1dkWPsmOND-60" value="Телефон" style="ellipse;whiteSpace=wrap;html=1;align=center;" parent="1" vertex="1">
          <mxGeometry x="-240" y="-250" width="80" height="40" as="geometry" />
        </mxCell>
        <mxCell id="mcFb8cgrytJxFzLp9jf6-16" value="" style="endArrow=none;html=1;rounded=0;exitX=0.5;exitY=1;exitDx=0;exitDy=0;entryX=0.5;entryY=0;entryDx=0;entryDy=0;jumpStyle=arc;" parent="1" source="mcFb8cgrytJxFzLp9jf6-59" target="mcFb8cgrytJxFzLp9jf6-15" edge="1">
          <mxGeometry relative="1" as="geometry">
            <mxPoint x="170" y="-240" as="sourcePoint" />
            <mxPoint x="40" y="-210" as="targetPoint" />
            <Array as="points">
              <mxPoint y="-240" />
              <mxPoint x="170" y="-240" />
            </Array>
          </mxGeometry>
        </mxCell>
        <mxCell id="WplWKPnF_K1dkWPsmOND-68" value="ID товара" style="ellipse;whiteSpace=wrap;html=1;align=center;" parent="1" vertex="1">
          <mxGeometry x="660" y="150" width="80" height="40" as="geometry" />
        </mxCell>
        <mxCell id="WplWKPnF_K1dkWPsmOND-69" value="ID склада" style="ellipse;whiteSpace=wrap;html=1;align=center;" parent="1" vertex="1">
          <mxGeometry x="660" y="210" width="80" height="40" as="geometry" />
        </mxCell>
        <mxCell id="WplWKPnF_K1dkWPsmOND-70" value="Количество" style="ellipse;whiteSpace=wrap;html=1;align=center;" parent="1" vertex="1">
          <mxGeometry x="660" y="270" width="80" height="40" as="geometry" />
        </mxCell>
        <mxCell id="WplWKPnF_K1dkWPsmOND-84" style="edgeStyle=orthogonalEdgeStyle;rounded=0;orthogonalLoop=1;jettySize=auto;html=1;exitX=1;exitY=0.5;exitDx=0;exitDy=0;entryX=0;entryY=0.5;entryDx=0;entryDy=0;endArrow=none;endFill=0;" parent="1" source="WplWKPnF_K1dkWPsmOND-78" target="WplWKPnF_K1dkWPsmOND-83" edge="1">
          <mxGeometry relative="1" as="geometry">
            <mxPoint x="470" y="-270" as="sourcePoint" />
            <Array as="points">
              <mxPoint x="480" y="-180" />
              <mxPoint x="480" y="-270" />
            </Array>
          </mxGeometry>
        </mxCell>
        <mxCell id="WplWKPnF_K1dkWPsmOND-85" style="edgeStyle=orthogonalEdgeStyle;rounded=0;orthogonalLoop=1;jettySize=auto;html=1;exitX=1;exitY=0.5;exitDx=0;exitDy=0;entryX=0;entryY=0.5;entryDx=0;entryDy=0;endArrow=none;endFill=0;" parent="1" source="WplWKPnF_K1dkWPsmOND-78" target="WplWKPnF_K1dkWPsmOND-82" edge="1">
          <mxGeometry relative="1" as="geometry">
            <Array as="points">
              <mxPoint x="480" y="-180" />
              <mxPoint x="480" y="-330" />
            </Array>
            <mxPoint x="470" y="-270" as="sourcePoint" />
          </mxGeometry>
        </mxCell>
        <mxCell id="WplWKPnF_K1dkWPsmOND-86" style="edgeStyle=orthogonalEdgeStyle;rounded=0;orthogonalLoop=1;jettySize=auto;html=1;exitX=1;exitY=0.5;exitDx=0;exitDy=0;entryX=0;entryY=0.5;entryDx=0;entryDy=0;endArrow=none;endFill=0;" parent="1" source="WplWKPnF_K1dkWPsmOND-78" target="WplWKPnF_K1dkWPsmOND-81" edge="1">
          <mxGeometry relative="1" as="geometry">
            <Array as="points">
              <mxPoint x="480" y="-180" />
              <mxPoint x="480" y="-510" />
            </Array>
            <mxPoint x="470" y="-270" as="sourcePoint" />
          </mxGeometry>
        </mxCell>
        <mxCell id="WplWKPnF_K1dkWPsmOND-87" style="edgeStyle=orthogonalEdgeStyle;rounded=0;orthogonalLoop=1;jettySize=auto;html=1;exitX=1;exitY=0.5;exitDx=0;exitDy=0;entryX=0;entryY=0.5;entryDx=0;entryDy=0;endArrow=none;endFill=0;" parent="1" source="WplWKPnF_K1dkWPsmOND-78" target="WplWKPnF_K1dkWPsmOND-80" edge="1">
          <mxGeometry relative="1" as="geometry">
            <Array as="points">
              <mxPoint x="480" y="-180" />
              <mxPoint x="480" y="-570" />
            </Array>
            <mxPoint x="470" y="-270" as="sourcePoint" />
          </mxGeometry>
        </mxCell>
        <mxCell id="WplWKPnF_K1dkWPsmOND-90" style="edgeStyle=orthogonalEdgeStyle;rounded=0;orthogonalLoop=1;jettySize=auto;html=1;exitX=1;exitY=0.5;exitDx=0;exitDy=0;entryX=0;entryY=0.5;entryDx=0;entryDy=0;endArrow=none;endFill=0;" parent="1" source="WplWKPnF_K1dkWPsmOND-78" target="WplWKPnF_K1dkWPsmOND-89" edge="1">
          <mxGeometry relative="1" as="geometry">
            <Array as="points">
              <mxPoint x="480" y="-180" />
              <mxPoint x="480" y="-210" />
            </Array>
            <mxPoint x="470" y="-270" as="sourcePoint" />
          </mxGeometry>
        </mxCell>
        <mxCell id="v9epDAscQyj7H1c9NfW2-31" style="edgeStyle=orthogonalEdgeStyle;rounded=0;orthogonalLoop=1;jettySize=auto;html=1;exitX=1;exitY=0.5;exitDx=0;exitDy=0;entryX=0;entryY=0.5;entryDx=0;entryDy=0;endArrow=none;endFill=0;" parent="1" source="WplWKPnF_K1dkWPsmOND-78" target="v9epDAscQyj7H1c9NfW2-30" edge="1">
          <mxGeometry relative="1" as="geometry">
            <Array as="points">
              <mxPoint x="480" y="-180" />
              <mxPoint x="480" y="-90" />
            </Array>
          </mxGeometry>
        </mxCell>
        <mxCell id="v9epDAscQyj7H1c9NfW2-32" style="edgeStyle=orthogonalEdgeStyle;rounded=0;orthogonalLoop=1;jettySize=auto;html=1;exitX=1;exitY=0.5;exitDx=0;exitDy=0;entryX=0;entryY=0.5;entryDx=0;entryDy=0;endArrow=none;endFill=0;" parent="1" source="WplWKPnF_K1dkWPsmOND-78" target="v9epDAscQyj7H1c9NfW2-29" edge="1">
          <mxGeometry relative="1" as="geometry">
            <Array as="points">
              <mxPoint x="480" y="-180" />
              <mxPoint x="480" y="-150" />
            </Array>
          </mxGeometry>
        </mxCell>
        <mxCell id="WplWKPnF_K1dkWPsmOND-78" value="Контракт" style="rounded=0;whiteSpace=wrap;html=1;" parent="1" vertex="1">
          <mxGeometry x="370" y="-200" width="100" height="40" as="geometry" />
        </mxCell>
        <mxCell id="WplWKPnF_K1dkWPsmOND-80" value="ID" style="ellipse;whiteSpace=wrap;html=1;align=center;" parent="1" vertex="1">
          <mxGeometry x="490" y="-590" width="80" height="40" as="geometry" />
        </mxCell>
        <mxCell id="WplWKPnF_K1dkWPsmOND-81" value="ID&lt;br&gt;фирмы" style="ellipse;whiteSpace=wrap;html=1;align=center;" parent="1" vertex="1">
          <mxGeometry x="490" y="-530" width="80" height="40" as="geometry" />
        </mxCell>
        <mxCell id="WplWKPnF_K1dkWPsmOND-82" value="Менеджер 1" style="ellipse;whiteSpace=wrap;html=1;align=center;" parent="1" vertex="1">
          <mxGeometry x="490" y="-350" width="80" height="40" as="geometry" />
        </mxCell>
        <mxCell id="WplWKPnF_K1dkWPsmOND-83" value="Менеджер 2" style="ellipse;whiteSpace=wrap;html=1;align=center;" parent="1" vertex="1">
          <mxGeometry x="490" y="-290" width="80" height="40" as="geometry" />
        </mxCell>
        <mxCell id="WplWKPnF_K1dkWPsmOND-89" value="Дата&lt;br&gt;заключения" style="ellipse;whiteSpace=wrap;html=1;align=center;" parent="1" vertex="1">
          <mxGeometry x="490" y="-230" width="80" height="40" as="geometry" />
        </mxCell>
        <mxCell id="WplWKPnF_K1dkWPsmOND-92" value="Позиция&lt;br&gt;контракта" style="shape=ext;margin=3;double=1;whiteSpace=wrap;html=1;align=center;rounded=0;strokeColor=default;verticalAlign=middle;fontFamily=Helvetica;fontSize=12;fontColor=default;fillColor=default;" parent="1" vertex="1">
          <mxGeometry x="370" y="-110" width="100" height="40" as="geometry" />
        </mxCell>
        <mxCell id="WplWKPnF_K1dkWPsmOND-93" value="" style="edgeStyle=orthogonalEdgeStyle;fontSize=12;html=1;endArrow=ERoneToMany;rounded=0;exitX=0.5;exitY=1;exitDx=0;exitDy=0;entryX=0.5;entryY=0;entryDx=0;entryDy=0;" parent="1" source="WplWKPnF_K1dkWPsmOND-78" target="WplWKPnF_K1dkWPsmOND-92" edge="1">
          <mxGeometry width="100" height="100" relative="1" as="geometry">
            <mxPoint x="250" y="-40" as="sourcePoint" />
            <mxPoint x="205" y="-110" as="targetPoint" />
          </mxGeometry>
        </mxCell>
        <mxCell id="WplWKPnF_K1dkWPsmOND-99" style="edgeStyle=orthogonalEdgeStyle;rounded=0;orthogonalLoop=1;jettySize=auto;html=1;exitX=0.5;exitY=0;exitDx=0;exitDy=0;entryX=0.5;entryY=1;entryDx=0;entryDy=0;endArrow=none;endFill=0;" parent="1" source="WplWKPnF_K1dkWPsmOND-95" target="WplWKPnF_K1dkWPsmOND-92" edge="1">
          <mxGeometry relative="1" as="geometry" />
        </mxCell>
        <mxCell id="WplWKPnF_K1dkWPsmOND-95" value="ID&lt;br&gt;контракта" style="ellipse;whiteSpace=wrap;html=1;align=center;" parent="1" vertex="1">
          <mxGeometry x="235" y="-20" width="80" height="40" as="geometry" />
        </mxCell>
        <mxCell id="WplWKPnF_K1dkWPsmOND-100" style="edgeStyle=orthogonalEdgeStyle;rounded=0;orthogonalLoop=1;jettySize=auto;html=1;exitX=0.5;exitY=0;exitDx=0;exitDy=0;entryX=0.5;entryY=1;entryDx=0;entryDy=0;endArrow=none;endFill=0;" parent="1" source="WplWKPnF_K1dkWPsmOND-96" target="WplWKPnF_K1dkWPsmOND-92" edge="1">
          <mxGeometry relative="1" as="geometry" />
        </mxCell>
        <mxCell id="WplWKPnF_K1dkWPsmOND-96" value="ID&lt;br&gt;товара" style="ellipse;whiteSpace=wrap;html=1;align=center;" parent="1" vertex="1">
          <mxGeometry x="330" y="-20" width="80" height="40" as="geometry" />
        </mxCell>
        <mxCell id="WplWKPnF_K1dkWPsmOND-101" style="edgeStyle=orthogonalEdgeStyle;rounded=0;orthogonalLoop=1;jettySize=auto;html=1;exitX=0.5;exitY=0;exitDx=0;exitDy=0;entryX=0.5;entryY=1;entryDx=0;entryDy=0;endArrow=none;endFill=0;" parent="1" source="WplWKPnF_K1dkWPsmOND-97" target="WplWKPnF_K1dkWPsmOND-92" edge="1">
          <mxGeometry relative="1" as="geometry" />
        </mxCell>
        <mxCell id="WplWKPnF_K1dkWPsmOND-97" value="ID&lt;br&gt;склада" style="ellipse;whiteSpace=wrap;html=1;align=center;" parent="1" vertex="1">
          <mxGeometry x="425" y="-20" width="80" height="40" as="geometry" />
        </mxCell>
        <mxCell id="WplWKPnF_K1dkWPsmOND-102" style="edgeStyle=orthogonalEdgeStyle;rounded=0;orthogonalLoop=1;jettySize=auto;html=1;exitX=0.5;exitY=0;exitDx=0;exitDy=0;entryX=0.5;entryY=1;entryDx=0;entryDy=0;endArrow=none;endFill=0;" parent="1" source="WplWKPnF_K1dkWPsmOND-98" target="WplWKPnF_K1dkWPsmOND-92" edge="1">
          <mxGeometry relative="1" as="geometry" />
        </mxCell>
        <mxCell id="WplWKPnF_K1dkWPsmOND-98" value="Количество" style="ellipse;whiteSpace=wrap;html=1;align=center;" parent="1" vertex="1">
          <mxGeometry x="525" y="-20" width="80" height="40" as="geometry" />
        </mxCell>
        <mxCell id="WplWKPnF_K1dkWPsmOND-103" value="" style="edgeStyle=orthogonalEdgeStyle;fontSize=12;html=1;endArrow=ERoneToMany;rounded=0;exitX=0.75;exitY=1;exitDx=0;exitDy=0;entryX=0.384;entryY=0.002;entryDx=0;entryDy=0;entryPerimeter=0;" parent="1" source="WplWKPnF_K1dkWPsmOND-92" target="mcFb8cgrytJxFzLp9jf6-57" edge="1">
          <mxGeometry width="100" height="100" relative="1" as="geometry">
            <mxPoint x="430" y="-150" as="sourcePoint" />
            <mxPoint x="600" y="90" as="targetPoint" />
            <Array as="points">
              <mxPoint x="445" y="-60" />
              <mxPoint x="618" y="-60" />
              <mxPoint x="618" y="40" />
              <mxPoint x="618" y="40" />
            </Array>
          </mxGeometry>
        </mxCell>
        <mxCell id="WplWKPnF_K1dkWPsmOND-104" value="Стоимость" style="ellipse;whiteSpace=wrap;html=1;align=center;" parent="1" vertex="1">
          <mxGeometry x="80" y="300" width="80" height="40" as="geometry" />
        </mxCell>
        <mxCell id="CRqIWNUID3f5_L4n8UA--1" value="Произво-&lt;br&gt;дитель" style="ellipse;whiteSpace=wrap;html=1;align=center;" parent="1" vertex="1">
          <mxGeometry x="80" y="360" width="80" height="40" as="geometry" />
        </mxCell>
        <mxCell id="v9epDAscQyj7H1c9NfW2-1" value="Физический адрес" style="ellipse;whiteSpace=wrap;html=1;align=center;" parent="1" vertex="1">
          <mxGeometry x="-240" y="-130" width="80" height="40" as="geometry" />
        </mxCell>
        <mxCell id="v9epDAscQyj7H1c9NfW2-2" value="Юридичес-кий адрес" style="ellipse;whiteSpace=wrap;html=1;align=center;" parent="1" vertex="1">
          <mxGeometry x="-240" y="-70" width="80" height="40" as="geometry" />
        </mxCell>
        <mxCell id="v9epDAscQyj7H1c9NfW2-23" style="edgeStyle=orthogonalEdgeStyle;rounded=0;orthogonalLoop=1;jettySize=auto;html=1;exitX=0.645;exitY=1.005;exitDx=0;exitDy=0;entryX=0;entryY=0.5;entryDx=0;entryDy=0;endArrow=none;endFill=0;startArrow=ERoneToMany;startFill=0;exitPerimeter=0;" parent="1" source="v9epDAscQyj7H1c9NfW2-5" target="1koM7frPWDngh7DI1A6u-1" edge="1">
          <mxGeometry relative="1" as="geometry">
            <Array as="points">
              <mxPoint x="-126" y="-720" />
              <mxPoint x="-126" y="-720" />
              <mxPoint x="-126" y="-460" />
            </Array>
          </mxGeometry>
        </mxCell>
        <mxCell id="v9epDAscQyj7H1c9NfW2-24" style="edgeStyle=orthogonalEdgeStyle;rounded=0;orthogonalLoop=1;jettySize=auto;html=1;exitX=0.5;exitY=1;exitDx=0;exitDy=0;entryX=1;entryY=0.5;entryDx=0;entryDy=0;endArrow=none;endFill=0;" parent="1" source="v9epDAscQyj7H1c9NfW2-5" target="v9epDAscQyj7H1c9NfW2-20" edge="1">
          <mxGeometry relative="1" as="geometry" />
        </mxCell>
        <mxCell id="v9epDAscQyj7H1c9NfW2-25" style="edgeStyle=orthogonalEdgeStyle;rounded=0;orthogonalLoop=1;jettySize=auto;html=1;exitX=0.5;exitY=1;exitDx=0;exitDy=0;entryX=1;entryY=0.5;entryDx=0;entryDy=0;endArrow=none;endFill=0;" parent="1" source="v9epDAscQyj7H1c9NfW2-5" target="v9epDAscQyj7H1c9NfW2-18" edge="1">
          <mxGeometry relative="1" as="geometry" />
        </mxCell>
        <mxCell id="v9epDAscQyj7H1c9NfW2-26" style="edgeStyle=orthogonalEdgeStyle;rounded=0;orthogonalLoop=1;jettySize=auto;html=1;exitX=0.5;exitY=1;exitDx=0;exitDy=0;entryX=1;entryY=0.5;entryDx=0;entryDy=0;endArrow=none;endFill=0;" parent="1" source="v9epDAscQyj7H1c9NfW2-5" target="v9epDAscQyj7H1c9NfW2-21" edge="1">
          <mxGeometry relative="1" as="geometry" />
        </mxCell>
        <mxCell id="v9epDAscQyj7H1c9NfW2-27" style="edgeStyle=orthogonalEdgeStyle;rounded=0;orthogonalLoop=1;jettySize=auto;html=1;exitX=0.5;exitY=1;exitDx=0;exitDy=0;entryX=1;entryY=0.5;entryDx=0;entryDy=0;endArrow=none;endFill=0;" parent="1" source="v9epDAscQyj7H1c9NfW2-5" target="v9epDAscQyj7H1c9NfW2-19" edge="1">
          <mxGeometry relative="1" as="geometry" />
        </mxCell>
        <mxCell id="v9epDAscQyj7H1c9NfW2-28" style="edgeStyle=orthogonalEdgeStyle;rounded=0;orthogonalLoop=1;jettySize=auto;html=1;exitX=0.5;exitY=1;exitDx=0;exitDy=0;entryX=1;entryY=0.5;entryDx=0;entryDy=0;endArrow=none;endFill=0;" parent="1" source="v9epDAscQyj7H1c9NfW2-5" target="v9epDAscQyj7H1c9NfW2-22" edge="1">
          <mxGeometry relative="1" as="geometry" />
        </mxCell>
        <mxCell id="v9epDAscQyj7H1c9NfW2-5" value="Пользователь" style="rounded=0;whiteSpace=wrap;html=1;" parent="1" vertex="1">
          <mxGeometry x="-190" y="-800" width="100" height="40" as="geometry" />
        </mxCell>
        <mxCell id="v9epDAscQyj7H1c9NfW2-9" style="edgeStyle=orthogonalEdgeStyle;rounded=0;orthogonalLoop=1;jettySize=auto;html=1;exitX=1;exitY=0.5;exitDx=0;exitDy=0;entryX=0.75;entryY=0;entryDx=0;entryDy=0;endArrow=none;endFill=0;" parent="1" source="v9epDAscQyj7H1c9NfW2-6" target="WplWKPnF_K1dkWPsmOND-78" edge="1">
          <mxGeometry relative="1" as="geometry" />
        </mxCell>
        <mxCell id="v9epDAscQyj7H1c9NfW2-6" value="Работает с" style="rhombus;whiteSpace=wrap;html=1;" parent="1" vertex="1">
          <mxGeometry x="250" y="-800" width="100" height="40" as="geometry" />
        </mxCell>
        <mxCell id="v9epDAscQyj7H1c9NfW2-7" value="" style="endArrow=none;html=1;rounded=0;exitX=1;exitY=0.5;exitDx=0;exitDy=0;entryX=0;entryY=0.5;entryDx=0;entryDy=0;startArrow=ERoneToMany;startFill=0;" parent="1" source="v9epDAscQyj7H1c9NfW2-5" target="v9epDAscQyj7H1c9NfW2-6" edge="1">
          <mxGeometry relative="1" as="geometry">
            <mxPoint x="-152.5" y="-650" as="sourcePoint" />
            <mxPoint x="-112.5" y="-650" as="targetPoint" />
          </mxGeometry>
        </mxCell>
        <mxCell id="v9epDAscQyj7H1c9NfW2-18" value="ФИО" style="ellipse;whiteSpace=wrap;html=1;align=center;" parent="1" vertex="1">
          <mxGeometry x="-240" y="-680" width="80" height="40" as="geometry" />
        </mxCell>
        <mxCell id="v9epDAscQyj7H1c9NfW2-19" value="Email" style="ellipse;whiteSpace=wrap;html=1;align=center;" parent="1" vertex="1">
          <mxGeometry x="-240" y="-560" width="80" height="40" as="geometry" />
        </mxCell>
        <mxCell id="v9epDAscQyj7H1c9NfW2-20" value="ID" style="ellipse;whiteSpace=wrap;html=1;align=center;" parent="1" vertex="1">
          <mxGeometry x="-240" y="-740" width="80" height="40" as="geometry" />
        </mxCell>
        <mxCell id="v9epDAscQyj7H1c9NfW2-21" value="Фирма" style="ellipse;whiteSpace=wrap;html=1;align=center;" parent="1" vertex="1">
          <mxGeometry x="-240" y="-620" width="80" height="40" as="geometry" />
        </mxCell>
        <mxCell id="v9epDAscQyj7H1c9NfW2-22" value="Телефон" style="ellipse;whiteSpace=wrap;html=1;align=center;" parent="1" vertex="1">
          <mxGeometry x="-240" y="-500" width="80" height="40" as="geometry" />
        </mxCell>
        <mxCell id="v9epDAscQyj7H1c9NfW2-29" value="Дата&lt;br&gt;истечения" style="ellipse;whiteSpace=wrap;html=1;align=center;" parent="1" vertex="1">
          <mxGeometry x="490" y="-170" width="80" height="40" as="geometry" />
        </mxCell>
        <mxCell id="v9epDAscQyj7H1c9NfW2-30" value="Документ" style="ellipse;whiteSpace=wrap;html=1;align=center;" parent="1" vertex="1">
          <mxGeometry x="490" y="-110" width="80" height="40" as="geometry" />
        </mxCell>
        <mxCell id="v9epDAscQyj7H1c9NfW2-36" style="edgeStyle=orthogonalEdgeStyle;rounded=0;orthogonalLoop=1;jettySize=auto;html=1;exitX=0;exitY=0.5;exitDx=0;exitDy=0;entryX=1;entryY=0.5;entryDx=0;entryDy=0;endArrow=none;endFill=0;" parent="1" source="v9epDAscQyj7H1c9NfW2-33" target="WplWKPnF_K1dkWPsmOND-78" edge="1">
          <mxGeometry relative="1" as="geometry">
            <Array as="points">
              <mxPoint x="480" y="-390" />
              <mxPoint x="480" y="-180" />
            </Array>
          </mxGeometry>
        </mxCell>
        <mxCell id="v9epDAscQyj7H1c9NfW2-33" value="Руководи-тель 2" style="ellipse;whiteSpace=wrap;html=1;align=center;" parent="1" vertex="1">
          <mxGeometry x="490" y="-410" width="80" height="40" as="geometry" />
        </mxCell>
        <mxCell id="v9epDAscQyj7H1c9NfW2-37" style="edgeStyle=orthogonalEdgeStyle;rounded=0;orthogonalLoop=1;jettySize=auto;html=1;exitX=0;exitY=0.5;exitDx=0;exitDy=0;entryX=1;entryY=0.5;entryDx=0;entryDy=0;endArrow=none;endFill=0;" parent="1" source="v9epDAscQyj7H1c9NfW2-35" target="WplWKPnF_K1dkWPsmOND-78" edge="1">
          <mxGeometry relative="1" as="geometry">
            <Array as="points">
              <mxPoint x="480" y="-450" />
              <mxPoint x="480" y="-180" />
            </Array>
          </mxGeometry>
        </mxCell>
        <mxCell id="v9epDAscQyj7H1c9NfW2-35" value="Руководи-тель 1" style="ellipse;whiteSpace=wrap;html=1;align=center;" parent="1" vertex="1">
          <mxGeometry x="490" y="-470" width="80" height="40" as="geometry" />
        </mxCell>
        <mxCell id="qRfUZBl-TKZEg4d44PtY-1" style="edgeStyle=orthogonalEdgeStyle;rounded=0;orthogonalLoop=1;jettySize=auto;html=1;exitX=0.5;exitY=1;exitDx=0;exitDy=0;entryX=1;entryY=0.5;entryDx=0;entryDy=0;endArrow=none;endFill=0;" parent="1" source="qRfUZBl-TKZEg4d44PtY-3" target="qRfUZBl-TKZEg4d44PtY-6" edge="1">
          <mxGeometry relative="1" as="geometry" />
        </mxCell>
        <mxCell id="qRfUZBl-TKZEg4d44PtY-2" style="edgeStyle=orthogonalEdgeStyle;rounded=0;orthogonalLoop=1;jettySize=auto;html=1;exitX=0.5;exitY=1;exitDx=0;exitDy=0;entryX=1;entryY=0.5;entryDx=0;entryDy=0;endArrow=none;endFill=0;" parent="1" source="qRfUZBl-TKZEg4d44PtY-3" target="qRfUZBl-TKZEg4d44PtY-7" edge="1">
          <mxGeometry relative="1" as="geometry" />
        </mxCell>
        <mxCell id="qRfUZBl-TKZEg4d44PtY-3" value="Производитель" style="rounded=0;whiteSpace=wrap;html=1;" parent="1" vertex="1">
          <mxGeometry x="-120" width="100" height="40" as="geometry" />
        </mxCell>
        <mxCell id="qRfUZBl-TKZEg4d44PtY-4" value="Производит" style="rhombus;whiteSpace=wrap;html=1;" parent="1" vertex="1">
          <mxGeometry x="-120" y="-70" width="100" height="40" as="geometry" />
        </mxCell>
        <mxCell id="qRfUZBl-TKZEg4d44PtY-5" value="" style="endArrow=none;html=1;rounded=0;exitX=0.5;exitY=1;exitDx=0;exitDy=0;entryX=0.5;entryY=0;entryDx=0;entryDy=0;" parent="1" source="qRfUZBl-TKZEg4d44PtY-4" target="qRfUZBl-TKZEg4d44PtY-3" edge="1">
          <mxGeometry relative="1" as="geometry">
            <mxPoint x="110" y="-100" as="sourcePoint" />
            <mxPoint x="270" y="-100" as="targetPoint" />
          </mxGeometry>
        </mxCell>
        <mxCell id="qRfUZBl-TKZEg4d44PtY-6" value="ID" style="ellipse;whiteSpace=wrap;html=1;align=center;" parent="1" vertex="1">
          <mxGeometry x="-180" y="80" width="80" height="40" as="geometry" />
        </mxCell>
        <mxCell id="qRfUZBl-TKZEg4d44PtY-7" value="Название произво-&lt;br&gt;дителя" style="ellipse;whiteSpace=wrap;html=1;align=center;" parent="1" vertex="1">
          <mxGeometry x="-180" y="140" width="80" height="40" as="geometry" />
        </mxCell>
        <mxCell id="qRfUZBl-TKZEg4d44PtY-8" value="" style="edgeStyle=orthogonalEdgeStyle;fontSize=12;html=1;endArrow=ERoneToMany;rounded=0;exitX=0.5;exitY=0;exitDx=0;exitDy=0;entryX=0;entryY=0.5;entryDx=0;entryDy=0;" parent="1" source="qRfUZBl-TKZEg4d44PtY-4" target="mcFb8cgrytJxFzLp9jf6-1" edge="1">
          <mxGeometry width="100" height="100" relative="1" as="geometry">
            <mxPoint x="110" y="-40" as="sourcePoint" />
            <mxPoint x="155" y="-70" as="targetPoint" />
          </mxGeometry>
        </mxCell>
        <mxCell id="1koM7frPWDngh7DI1A6u-1" value="Работает в" style="rhombus;whiteSpace=wrap;html=1;" vertex="1" parent="1">
          <mxGeometry x="-50" y="-480" width="100" height="40" as="geometry" />
        </mxCell>
        <mxCell id="1koM7frPWDngh7DI1A6u-7" style="edgeStyle=orthogonalEdgeStyle;rounded=0;orthogonalLoop=1;jettySize=auto;html=1;exitX=0.5;exitY=1;exitDx=0;exitDy=0;entryX=0;entryY=0.5;entryDx=0;entryDy=0;endArrow=none;endFill=0;" edge="1" parent="1" source="1koM7frPWDngh7DI1A6u-4" target="1koM7frPWDngh7DI1A6u-6">
          <mxGeometry relative="1" as="geometry" />
        </mxCell>
        <mxCell id="1koM7frPWDngh7DI1A6u-8" style="edgeStyle=orthogonalEdgeStyle;rounded=0;orthogonalLoop=1;jettySize=auto;html=1;exitX=0.5;exitY=1;exitDx=0;exitDy=0;entryX=0;entryY=0.5;entryDx=0;entryDy=0;endArrow=none;endFill=0;" edge="1" parent="1" source="1koM7frPWDngh7DI1A6u-4" target="1koM7frPWDngh7DI1A6u-5">
          <mxGeometry relative="1" as="geometry" />
        </mxCell>
        <mxCell id="1koM7frPWDngh7DI1A6u-11" value="" style="edgeStyle=orthogonalEdgeStyle;rounded=0;orthogonalLoop=1;jettySize=auto;html=1;endArrow=none;endFill=0;" edge="1" parent="1" source="1koM7frPWDngh7DI1A6u-4" target="1koM7frPWDngh7DI1A6u-10">
          <mxGeometry relative="1" as="geometry" />
        </mxCell>
        <mxCell id="1koM7frPWDngh7DI1A6u-4" value="Данные авторизации" style="rounded=0;whiteSpace=wrap;html=1;" vertex="1" parent="1">
          <mxGeometry x="40" y="-680" width="100" height="40" as="geometry" />
        </mxCell>
        <mxCell id="1koM7frPWDngh7DI1A6u-5" value="ID пользо-вателя" style="ellipse;whiteSpace=wrap;html=1;align=center;" vertex="1" parent="1">
          <mxGeometry x="120" y="-620" width="80" height="40" as="geometry" />
        </mxCell>
        <mxCell id="1koM7frPWDngh7DI1A6u-6" value="Хэш пароля" style="ellipse;whiteSpace=wrap;html=1;align=center;" vertex="1" parent="1">
          <mxGeometry x="120" y="-560" width="80" height="40" as="geometry" />
        </mxCell>
        <mxCell id="1koM7frPWDngh7DI1A6u-10" value="Использует" style="rhombus;whiteSpace=wrap;html=1;" vertex="1" parent="1">
          <mxGeometry x="-90" y="-680" width="100" height="40" as="geometry" />
        </mxCell>
        <mxCell id="1koM7frPWDngh7DI1A6u-12" style="edgeStyle=orthogonalEdgeStyle;rounded=0;orthogonalLoop=1;jettySize=auto;html=1;entryX=0.828;entryY=1;entryDx=0;entryDy=0;entryPerimeter=0;exitX=0;exitY=0.5;exitDx=0;exitDy=0;endArrow=none;endFill=0;" edge="1" parent="1" source="1koM7frPWDngh7DI1A6u-10" target="v9epDAscQyj7H1c9NfW2-5">
          <mxGeometry relative="1" as="geometry">
            <Array as="points">
              <mxPoint x="-107" y="-660" />
              <mxPoint x="-107" y="-720" />
            </Array>
          </mxGeometry>
        </mxCell>
      </root>
    </mxGraphModel>
  </diagram>
</mxfile>
